# xmcd
#
# Track frame offsets: 
#        150
#        17867
#        32022
#
# Disc length: 685 seconds
#
# Revision: 0
# Processed by: cddbd v1.5.2PL0 Copyright (c) Steve Scherf et al.
# Submitted via: ExactAudioCopy v0.95b4
#
DISCID=1b02ab03
DTITLE=Farmer's Daughter - Treat Yourself To A Taste Of Farmer's Daugh
DTITLE=ter
DYEAR=1993
DGENRE=Country
TTITLE0=Inclemency
TTITLE1=Lonely Gypsy Wind
TTITLE2=She Still Haunts You
EXTD=
EXTT0=
EXTT1=
EXTT2=
PLAYORDER=
